<svg width="298" height="45" viewBox="0 0 298 45" fill="none" xmlns="http://www.w3.org/2000/svg">
<path d="M65.58 29.28C64.98 29.28 64.4733 29.1667 64.06 28.94C63.6467 28.7133 63.2867 28.3467 62.98 27.84C62.6867 27.3333 62.4 26.6733 62.12 25.86C61.9333 25.34 61.7533 24.88 61.58 24.48C61.42 24.0667 61.2467 23.7267 61.06 23.46C60.8733 23.18 60.6667 22.9733 60.44 22.84C60.2267 22.7067 59.9733 22.64 59.68 22.64H58.88V26.58C58.88 26.9267 58.92 27.16 59 27.28C59.08 27.4 59.2533 27.4867 59.52 27.54L60.4 27.68V29H54.02V27.68L54.92 27.54C55.1867 27.4867 55.3533 27.3933 55.42 27.26C55.5 27.1133 55.54 26.8667 55.54 26.52V17.34C55.54 16.9933 55.5 16.76 55.42 16.64C55.34 16.5067 55.16 16.42 54.88 16.38L54.02 16.26V14.94H60.38V16.26L59.48 16.4C59.2267 16.44 59.06 16.5333 58.98 16.68C58.9133 16.8267 58.88 17.0733 58.88 17.42V21.06C59.12 21.0467 59.3333 21.04 59.52 21.04C59.72 21.0267 59.8933 21.0067 60.04 20.98C60.2 20.94 60.3333 20.8933 60.44 20.84C60.7467 20.6933 61.0067 20.5267 61.22 20.34C61.4333 20.14 61.6333 19.8533 61.82 19.48C62.02 19.0933 62.2267 18.56 62.44 17.88C62.68 17.1333 62.9467 16.5333 63.24 16.08C63.5333 15.6133 63.8667 15.2733 64.24 15.06C64.6267 14.8467 65.0733 14.74 65.58 14.74C65.9667 14.74 66.32 14.8133 66.64 14.96C66.96 15.0933 67.2133 15.2733 67.4 15.5C67.6 15.7267 67.7 15.9933 67.7 16.3C67.7 16.6333 67.62 16.9533 67.46 17.26C67.3133 17.5533 67.1133 17.7933 66.86 17.98C66.62 18.1667 66.3467 18.26 66.04 18.26C65.68 18.26 65.38 18.14 65.14 17.9C64.9133 17.66 64.7133 17.3867 64.54 17.08C64.46 17.28 64.3733 17.4867 64.28 17.7C64.2 17.9 64.1067 18.14 64 18.42C63.8933 18.7 63.7467 19.06 63.56 19.5C63.44 19.8067 63.2933 20.1 63.12 20.38C62.96 20.66 62.7667 20.9067 62.54 21.12C62.3133 21.3333 62.0267 21.52 61.68 21.68V21.74C62.3067 21.82 62.8467 22.0133 63.3 22.32C63.7667 22.6267 64.16 23.0133 64.48 23.48C64.8133 23.9467 65.0933 24.4467 65.32 24.98C65.4933 25.3933 65.6467 25.7533 65.78 26.06C65.9133 26.3533 66.04 26.6 66.16 26.8C66.28 27 66.4067 27.1533 66.54 27.26C66.6733 27.3533 66.82 27.4 66.98 27.4C67.1267 27.4 67.2667 27.38 67.4 27.34C67.5467 27.2867 67.6867 27.2267 67.82 27.16L68.26 28.2C67.8733 28.5733 67.4667 28.8467 67.04 29.02C66.6133 29.1933 66.1267 29.28 65.58 29.28ZM74.1786 29.28C73.0453 29.28 72.0786 29.08 71.2786 28.68C70.4786 28.2667 69.8653 27.6733 69.4386 26.9C69.0119 26.1267 68.7986 25.18 68.7986 24.06C68.7986 22.82 69.0319 21.7867 69.4986 20.96C69.9786 20.1333 70.6519 19.5133 71.5186 19.1C72.3853 18.6733 73.3919 18.46 74.5386 18.46C75.5919 18.46 76.5119 18.6533 77.2986 19.04C78.0853 19.4133 78.6986 19.9867 79.1386 20.76C79.5919 21.52 79.8186 22.48 79.8186 23.64C79.8186 24.8267 79.5919 25.8467 79.1386 26.7C78.6853 27.54 78.0386 28.18 77.1986 28.62C76.3586 29.06 75.3519 29.28 74.1786 29.28ZM74.4386 27.66C74.9186 27.66 75.3053 27.5333 75.5986 27.28C75.8919 27.0133 76.1053 26.6133 76.2386 26.08C76.3719 25.5467 76.4386 24.8733 76.4386 24.06C76.4386 23.3267 76.3853 22.7067 76.2786 22.2C76.1853 21.6933 76.0386 21.2867 75.8386 20.98C75.6519 20.66 75.4186 20.4267 75.1386 20.28C74.8719 20.1333 74.5653 20.06 74.2186 20.06C73.7919 20.06 73.4186 20.1733 73.0986 20.4C72.7919 20.6133 72.5586 20.9667 72.3986 21.46C72.2386 21.9533 72.1586 22.6133 72.1586 23.44C72.1586 24.3867 72.2386 25.1733 72.3986 25.8C72.5719 26.4267 72.8253 26.8933 73.1586 27.2C73.5053 27.5067 73.9319 27.66 74.4386 27.66ZM81.3791 29V27.72L82.1791 27.56C82.3924 27.5333 82.5324 27.46 82.5991 27.34C82.6657 27.2067 82.6991 26.9667 82.6991 26.62V21.06C82.6991 20.74 82.6657 20.5133 82.5991 20.38C82.5324 20.2467 82.3924 20.1667 82.1791 20.14L81.2791 19.98L81.4391 18.7H87.3991C88.2791 18.7 89.0057 18.7867 89.5791 18.96C90.1524 19.1333 90.5791 19.4 90.8591 19.76C91.1524 20.1067 91.2991 20.5467 91.2991 21.08C91.2991 21.6533 91.0791 22.1667 90.6391 22.62C90.2124 23.06 89.5457 23.3533 88.6391 23.5V23.52C89.2791 23.5867 89.8324 23.7133 90.2991 23.9C90.7791 24.0733 91.1524 24.3267 91.4191 24.66C91.6857 24.9933 91.8191 25.44 91.8191 26C91.8191 26.5467 91.6724 27.0467 91.3791 27.5C91.0857 27.9533 90.6124 28.32 89.9591 28.6C89.3057 28.8667 88.4324 29 87.3391 29H81.3791ZM86.8991 27.74C87.2324 27.74 87.5257 27.68 87.7791 27.56C88.0457 27.44 88.2524 27.2467 88.3991 26.98C88.5591 26.7133 88.6391 26.38 88.6391 25.98C88.6391 25.4733 88.4991 25.0733 88.2191 24.78C87.9524 24.4867 87.5391 24.34 86.9791 24.34H85.8791V27.7C86.0391 27.7133 86.2057 27.7267 86.3791 27.74C86.5657 27.74 86.7391 27.74 86.8991 27.74ZM85.8791 23.14H86.8791C87.3324 23.14 87.6591 22.9867 87.8591 22.68C88.0591 22.36 88.1591 21.94 88.1591 21.42C88.1591 20.9 88.0391 20.5267 87.7991 20.3C87.5591 20.06 87.1991 19.94 86.7191 19.94C86.5857 19.94 86.4391 19.94 86.2791 19.94C86.1324 19.94 85.9991 19.9533 85.8791 19.98V23.14ZM96.2727 29.28C95.3127 29.28 94.5593 29.0333 94.0127 28.54C93.4793 28.0467 93.2127 27.3867 93.2127 26.56C93.2127 25.7733 93.4127 25.1533 93.8127 24.7C94.226 24.2467 94.8527 23.92 95.6927 23.72C96.546 23.5067 97.6527 23.3667 99.0127 23.3V21.86C99.0127 21.3667 98.9593 20.96 98.8527 20.64C98.746 20.32 98.566 20.0867 98.3127 19.94C98.0727 19.78 97.7393 19.7 97.3127 19.7C97.006 19.7 96.6927 19.7467 96.3727 19.84C96.066 19.9333 95.8193 20.0533 95.6327 20.2C95.7793 20.4133 95.8927 20.6 95.9727 20.76C96.066 20.92 96.1327 21.06 96.1727 21.18C96.2127 21.2867 96.2327 21.3867 96.2327 21.48C96.2327 21.7733 96.0993 22.02 95.8327 22.22C95.5793 22.42 95.2193 22.52 94.7527 22.52C94.286 22.52 93.9393 22.4133 93.7127 22.2C93.486 21.9733 93.3727 21.6733 93.3727 21.3C93.3727 20.78 93.5593 20.3067 93.9327 19.88C94.3193 19.4533 94.846 19.1133 95.5127 18.86C96.1927 18.6067 96.9727 18.48 97.8527 18.48C98.8393 18.48 99.6527 18.6133 100.293 18.88C100.933 19.1467 101.406 19.5667 101.713 20.14C102.033 20.7 102.193 21.42 102.193 22.3V26.56C102.193 26.8667 102.253 27.0933 102.373 27.24C102.493 27.3867 102.686 27.46 102.953 27.46C103.086 27.46 103.219 27.4467 103.353 27.42C103.486 27.3933 103.619 27.36 103.753 27.32L103.993 28.36C103.726 28.6133 103.373 28.8267 102.933 29C102.493 29.1867 102.046 29.28 101.593 29.28C100.939 29.28 100.426 29.1267 100.053 28.82C99.6793 28.5133 99.4393 28.1067 99.3327 27.6C99.146 27.92 98.9127 28.2067 98.6327 28.46C98.366 28.7133 98.0327 28.9133 97.6327 29.06C97.246 29.2067 96.7927 29.28 96.2727 29.28ZM97.5327 27.6C97.826 27.6 98.0793 27.5333 98.2927 27.4C98.5193 27.2667 98.6927 27.0867 98.8127 26.86C98.946 26.62 99.0127 26.3467 99.0127 26.04V24.54C98.4127 24.54 97.9127 24.6 97.5127 24.72C97.1127 24.8267 96.8193 25.0067 96.6327 25.26C96.446 25.5 96.3527 25.82 96.3527 26.22C96.3527 26.6467 96.4527 26.9867 96.6527 27.24C96.8527 27.48 97.146 27.6 97.5327 27.6ZM106.37 29.26C105.824 29.26 105.364 29.1133 104.99 28.82C104.617 28.5267 104.43 28.14 104.43 27.66C104.43 27.38 104.497 27.12 104.63 26.88C104.764 26.6267 104.944 26.4267 105.17 26.28C105.397 26.1333 105.644 26.06 105.91 26.06C106.204 26.06 106.457 26.1667 106.67 26.38C106.884 26.58 107.09 26.82 107.29 27.1C107.37 26.9933 107.45 26.8333 107.53 26.62C107.61 26.3933 107.69 26.1333 107.77 25.84C107.837 25.5867 107.897 25.28 107.95 24.92C108.017 24.56 108.07 24.1733 108.11 23.76C108.15 23.3467 108.184 22.9133 108.21 22.46C108.237 22.0067 108.25 21.5467 108.25 21.08C108.25 20.76 108.21 20.5333 108.13 20.4C108.05 20.2667 107.904 20.18 107.69 20.14L106.77 20L106.87 18.7H116.71V20L115.95 20.14C115.724 20.1667 115.57 20.24 115.49 20.36C115.41 20.4667 115.37 20.6467 115.37 20.9V26.74C115.37 27.0333 115.404 27.24 115.47 27.36C115.537 27.4667 115.69 27.54 115.93 27.58L116.71 27.72V29H110.81V27.74L111.67 27.58C111.884 27.5533 112.024 27.48 112.09 27.36C112.157 27.2267 112.19 27.0067 112.19 26.7V20.24H109.91C109.91 20.7067 109.897 21.1733 109.87 21.64C109.857 22.0933 109.83 22.5467 109.79 23C109.764 23.44 109.724 23.86 109.67 24.26C109.63 24.66 109.584 25.02 109.53 25.34C109.41 25.9667 109.257 26.52 109.07 27C108.897 27.48 108.677 27.8933 108.41 28.24C108.157 28.5733 107.857 28.8267 107.51 29C107.177 29.1733 106.797 29.26 106.37 29.26ZM118.254 29V27.72L119.054 27.56C119.254 27.5333 119.387 27.46 119.454 27.34C119.52 27.2067 119.554 26.9667 119.554 26.62V21.06C119.554 20.7267 119.52 20.5 119.454 20.38C119.387 20.2467 119.254 20.1667 119.054 20.14L118.174 19.98L118.334 18.7H124.294V19.98L123.334 20.14C123.094 20.18 122.934 20.2667 122.854 20.4C122.774 20.52 122.734 20.7333 122.734 21.04V22.58C123.04 22.5267 123.334 22.4933 123.614 22.48C123.894 22.4667 124.214 22.46 124.574 22.46C125.414 22.46 126.134 22.58 126.734 22.82C127.334 23.06 127.794 23.4067 128.114 23.86C128.447 24.3 128.614 24.8467 128.614 25.5C128.614 26.3267 128.407 27 127.994 27.52C127.58 28.0267 126.974 28.4 126.174 28.64C125.374 28.88 124.394 29 123.234 29H118.254ZM123.614 27.7C124.2 27.7 124.654 27.5333 124.974 27.2C125.294 26.8667 125.454 26.36 125.454 25.68C125.454 25.0667 125.294 24.62 124.974 24.34C124.667 24.0467 124.24 23.9 123.694 23.9C123.507 23.9 123.334 23.9067 123.174 23.92C123.027 23.9333 122.88 23.9467 122.734 23.96V27.62C122.88 27.6467 123.02 27.6667 123.154 27.68C123.3 27.6933 123.454 27.7 123.614 27.7ZM135.129 29.28C134.062 29.28 133.149 29.0667 132.389 28.64C131.629 28.2133 131.049 27.6133 130.649 26.84C130.249 26.0533 130.049 25.1333 130.049 24.08C130.049 22.96 130.262 21.98 130.689 21.14C131.129 20.3 131.755 19.6467 132.569 19.18C133.395 18.7 134.382 18.46 135.529 18.46C136.369 18.46 137.089 18.5933 137.689 18.86C138.302 19.1133 138.769 19.4467 139.089 19.86C139.409 20.2733 139.569 20.7267 139.569 21.22C139.569 21.5133 139.509 21.7867 139.389 22.04C139.282 22.28 139.109 22.48 138.869 22.64C138.629 22.7867 138.315 22.86 137.929 22.86C137.475 22.86 137.115 22.76 136.849 22.56C136.595 22.36 136.469 22.0867 136.469 21.74C136.469 21.58 136.509 21.4 136.589 21.2C136.669 20.9867 136.815 20.7 137.029 20.34C136.802 20.1933 136.569 20.0933 136.329 20.04C136.102 19.9867 135.829 19.96 135.509 19.96C135.069 19.96 134.682 20.0933 134.349 20.36C134.015 20.6133 133.755 21 133.569 21.52C133.395 22.04 133.309 22.6733 133.309 23.42C133.309 24.58 133.542 25.4667 134.009 26.08C134.489 26.6933 135.182 27 136.089 27C136.595 27 137.069 26.92 137.509 26.76C137.962 26.6 138.415 26.36 138.869 26.04L139.709 27.12C139.215 27.76 138.589 28.28 137.829 28.68C137.082 29.08 136.182 29.28 135.129 29.28ZM140.968 29V27.72L141.768 27.56C141.968 27.5333 142.102 27.46 142.168 27.34C142.235 27.2067 142.268 26.9667 142.268 26.62V21.06C142.268 20.7267 142.235 20.5 142.168 20.38C142.102 20.2467 141.968 20.1667 141.768 20.14L140.888 19.98L141.048 18.7H147.008V19.98L146.048 20.14C145.808 20.18 145.648 20.2667 145.568 20.4C145.488 20.52 145.448 20.7333 145.448 21.04V22.58C145.755 22.5267 146.048 22.4933 146.328 22.48C146.608 22.4667 146.928 22.46 147.288 22.46C148.128 22.46 148.848 22.58 149.448 22.82C150.048 23.06 150.508 23.4067 150.828 23.86C151.162 24.3 151.328 24.8467 151.328 25.5C151.328 26.3267 151.122 27 150.708 27.52C150.295 28.0267 149.688 28.4 148.888 28.64C148.088 28.88 147.108 29 145.948 29H140.968ZM146.328 27.7C146.915 27.7 147.368 27.5333 147.688 27.2C148.008 26.8667 148.168 26.36 148.168 25.68C148.168 25.0667 148.008 24.62 147.688 24.34C147.382 24.0467 146.955 23.9 146.408 23.9C146.222 23.9 146.048 23.9067 145.888 23.92C145.742 23.9333 145.595 23.9467 145.448 23.96V27.62C145.595 27.6467 145.735 27.6667 145.868 27.68C146.015 27.6933 146.168 27.7 146.328 27.7ZM162.543 29.16C162.09 29.16 161.69 29.0933 161.343 28.96C161.01 28.8267 160.71 28.6067 160.443 28.3C160.19 27.98 159.95 27.5467 159.723 27C159.523 26.5333 159.343 26.14 159.183 25.82C159.023 25.5 158.863 25.24 158.703 25.04C158.543 24.84 158.343 24.6933 158.103 24.6C157.997 24.52 157.883 24.4733 157.763 24.46C157.643 24.4333 157.497 24.42 157.323 24.42V26.72C157.323 27.0267 157.35 27.24 157.403 27.36C157.47 27.48 157.61 27.56 157.823 27.6L158.523 27.74V29H152.843V27.72L153.643 27.56C153.843 27.5333 153.977 27.46 154.043 27.34C154.11 27.2067 154.143 26.9667 154.143 26.62V21.06C154.143 20.7267 154.103 20.5 154.023 20.38C153.957 20.2467 153.83 20.1667 153.643 20.14L152.763 19.98L152.923 18.7H158.483V19.98L157.823 20.1C157.61 20.14 157.47 20.2267 157.403 20.36C157.35 20.48 157.323 20.7 157.323 21.02V23.22C157.537 23.2333 157.723 23.2333 157.883 23.22C158.043 23.1933 158.197 23.14 158.343 23.06C158.49 22.9933 158.63 22.8867 158.763 22.74C158.897 22.58 159.037 22.3533 159.183 22.06C159.343 21.7533 159.517 21.3733 159.703 20.92C159.943 20.3467 160.197 19.8933 160.463 19.56C160.73 19.2133 161.03 18.96 161.363 18.8C161.697 18.64 162.063 18.56 162.463 18.56C162.97 18.56 163.39 18.6933 163.723 18.96C164.07 19.2267 164.243 19.58 164.243 20.02C164.243 20.2867 164.17 20.5467 164.023 20.8C163.89 21.04 163.717 21.24 163.503 21.4C163.29 21.5467 163.057 21.62 162.803 21.62C162.523 21.62 162.277 21.5333 162.063 21.36C161.85 21.1733 161.65 20.88 161.463 20.48C161.397 20.6133 161.323 20.76 161.243 20.92C161.163 21.08 161.077 21.2533 160.983 21.44C160.903 21.6133 160.81 21.8067 160.703 22.02C160.543 22.3933 160.363 22.7067 160.163 22.96C159.977 23.2133 159.73 23.4267 159.423 23.6V23.64C159.89 23.7067 160.303 23.82 160.663 23.98C161.037 24.14 161.363 24.36 161.643 24.64C161.923 24.92 162.163 25.2867 162.363 25.74C162.683 26.4467 162.95 26.9267 163.163 27.18C163.377 27.4333 163.603 27.56 163.843 27.56C163.937 27.56 164.023 27.5467 164.103 27.52C164.197 27.4933 164.323 27.4467 164.483 27.38L164.803 28.36C164.523 28.6133 164.183 28.8133 163.783 28.96C163.397 29.0933 162.983 29.16 162.543 29.16ZM168.792 29.28C167.832 29.28 167.079 29.0333 166.532 28.54C165.999 28.0467 165.732 27.3867 165.732 26.56C165.732 25.7733 165.932 25.1533 166.332 24.7C166.746 24.2467 167.372 23.92 168.212 23.72C169.066 23.5067 170.172 23.3667 171.532 23.3V21.86C171.532 21.3667 171.479 20.96 171.372 20.64C171.266 20.32 171.086 20.0867 170.832 19.94C170.592 19.78 170.259 19.7 169.832 19.7C169.526 19.7 169.212 19.7467 168.892 19.84C168.586 19.9333 168.339 20.0533 168.152 20.2C168.299 20.4133 168.412 20.6 168.492 20.76C168.586 20.92 168.652 21.06 168.692 21.18C168.732 21.2867 168.752 21.3867 168.752 21.48C168.752 21.7733 168.619 22.02 168.352 22.22C168.099 22.42 167.739 22.52 167.272 22.52C166.806 22.52 166.459 22.4133 166.232 22.2C166.006 21.9733 165.892 21.6733 165.892 21.3C165.892 20.78 166.079 20.3067 166.452 19.88C166.839 19.4533 167.366 19.1133 168.032 18.86C168.712 18.6067 169.492 18.48 170.372 18.48C171.359 18.48 172.172 18.6133 172.812 18.88C173.452 19.1467 173.926 19.5667 174.232 20.14C174.552 20.7 174.712 21.42 174.712 22.3V26.56C174.712 26.8667 174.772 27.0933 174.892 27.24C175.012 27.3867 175.206 27.46 175.472 27.46C175.606 27.46 175.739 27.4467 175.872 27.42C176.006 27.3933 176.139 27.36 176.272 27.32L176.512 28.36C176.246 28.6133 175.892 28.8267 175.452 29C175.012 29.1867 174.566 29.28 174.112 29.28C173.459 29.28 172.946 29.1267 172.572 28.82C172.199 28.5133 171.959 28.1067 171.852 27.6C171.666 27.92 171.432 28.2067 171.152 28.46C170.886 28.7133 170.552 28.9133 170.152 29.06C169.766 29.2067 169.312 29.28 168.792 29.28ZM170.052 27.6C170.346 27.6 170.599 27.5333 170.812 27.4C171.039 27.2667 171.212 27.0867 171.332 26.86C171.466 26.62 171.532 26.3467 171.532 26.04V24.54C170.932 24.54 170.432 24.6 170.032 24.72C169.632 24.8267 169.339 25.0067 169.152 25.26C168.966 25.5 168.872 25.82 168.872 26.22C168.872 26.6467 168.972 26.9867 169.172 27.24C169.372 27.48 169.666 27.6 170.052 27.6ZM181.359 29V27.72L182.159 27.56C182.359 27.5333 182.492 27.46 182.559 27.34C182.625 27.2067 182.659 26.9667 182.659 26.62V21.06C182.659 20.7267 182.625 20.5 182.559 20.38C182.492 20.2467 182.359 20.1667 182.159 20.14L181.279 19.98L181.459 18.7H186.099L188.159 24.02L188.259 24.04L190.379 18.7H195.359V20L194.619 20.12C194.379 20.16 194.219 20.24 194.139 20.36C194.072 20.48 194.039 20.6933 194.039 21V26.74C194.039 27.02 194.072 27.22 194.139 27.34C194.219 27.46 194.372 27.54 194.599 27.58L195.399 27.72V29H189.719V27.72L190.359 27.6C190.572 27.56 190.705 27.48 190.759 27.36C190.825 27.24 190.859 27.0267 190.859 26.72V21.5H190.799L188.759 26.68L186.379 26.82L184.279 21.48L184.199 21.46V26.72C184.199 27.0133 184.225 27.2267 184.279 27.36C184.345 27.48 184.479 27.56 184.679 27.6L185.399 27.74V29H181.359ZM199.905 29.28C198.945 29.28 198.192 29.0333 197.645 28.54C197.112 28.0467 196.845 27.3867 196.845 26.56C196.845 25.7733 197.045 25.1533 197.445 24.7C197.859 24.2467 198.485 23.92 199.325 23.72C200.179 23.5067 201.285 23.3667 202.645 23.3V21.86C202.645 21.3667 202.592 20.96 202.485 20.64C202.379 20.32 202.199 20.0867 201.945 19.94C201.705 19.78 201.372 19.7 200.945 19.7C200.639 19.7 200.325 19.7467 200.005 19.84C199.699 19.9333 199.452 20.0533 199.265 20.2C199.412 20.4133 199.525 20.6 199.605 20.76C199.699 20.92 199.765 21.06 199.805 21.18C199.845 21.2867 199.865 21.3867 199.865 21.48C199.865 21.7733 199.732 22.02 199.465 22.22C199.212 22.42 198.852 22.52 198.385 22.52C197.919 22.52 197.572 22.4133 197.345 22.2C197.119 21.9733 197.005 21.6733 197.005 21.3C197.005 20.78 197.192 20.3067 197.565 19.88C197.952 19.4533 198.479 19.1133 199.145 18.86C199.825 18.6067 200.605 18.48 201.485 18.48C202.472 18.48 203.285 18.6133 203.925 18.88C204.565 19.1467 205.039 19.5667 205.345 20.14C205.665 20.7 205.825 21.42 205.825 22.3V26.56C205.825 26.8667 205.885 27.0933 206.005 27.24C206.125 27.3867 206.319 27.46 206.585 27.46C206.719 27.46 206.852 27.4467 206.985 27.42C207.119 27.3933 207.252 27.36 207.385 27.32L207.625 28.36C207.359 28.6133 207.005 28.8267 206.565 29C206.125 29.1867 205.679 29.28 205.225 29.28C204.572 29.28 204.059 29.1267 203.685 28.82C203.312 28.5133 203.072 28.1067 202.965 27.6C202.779 27.92 202.545 28.2067 202.265 28.46C201.999 28.7133 201.665 28.9133 201.265 29.06C200.879 29.2067 200.425 29.28 199.905 29.28ZM201.165 27.6C201.459 27.6 201.712 27.5333 201.925 27.4C202.152 27.2667 202.325 27.0867 202.445 26.86C202.579 26.62 202.645 26.3467 202.645 26.04V24.54C202.045 24.54 201.545 24.6 201.145 24.72C200.745 24.8267 200.452 25.0067 200.265 25.26C200.079 25.5 199.985 25.82 199.985 26.22C199.985 26.6467 200.085 26.9867 200.285 27.24C200.485 27.48 200.779 27.6 201.165 27.6ZM208.408 29V27.72L209.208 27.56C209.422 27.5333 209.562 27.46 209.628 27.34C209.695 27.2067 209.728 26.9667 209.728 26.62V21.06C209.728 20.7267 209.695 20.5 209.628 20.38C209.562 20.26 209.428 20.18 209.228 20.14L208.388 19.98L208.468 18.7H214.068V19.98L213.408 20.1C213.195 20.14 213.055 20.2267 212.988 20.36C212.935 20.48 212.908 20.7 212.908 21.02V24.5L216.568 21.3V20.96C216.568 20.6667 216.535 20.46 216.468 20.34C216.402 20.22 216.262 20.14 216.048 20.1L215.368 19.98L215.468 18.7H221.048V20L220.308 20.12C220.068 20.16 219.915 20.24 219.848 20.36C219.782 20.48 219.748 20.6933 219.748 21V26.74C219.748 27.0333 219.782 27.24 219.848 27.36C219.915 27.4667 220.062 27.54 220.288 27.58L221.088 27.72V29H215.408V27.72L216.048 27.6C216.262 27.56 216.402 27.48 216.468 27.36C216.535 27.24 216.568 27.0267 216.568 26.72V23.14L212.908 26.34V26.72C212.908 27.0267 212.935 27.24 212.988 27.36C213.055 27.48 213.188 27.56 213.388 27.6L214.108 27.74V29H208.408ZM214.608 17.14C213.475 17.1133 212.582 16.9067 211.928 16.52C211.275 16.12 210.962 15.5867 210.988 14.92C211.015 14.5067 211.162 14.1933 211.428 13.98C211.695 13.7533 212.008 13.6533 212.368 13.68C212.822 13.7067 213.148 13.8267 213.348 14.04C213.562 14.24 213.662 14.5 213.648 14.82C213.662 15.0733 213.642 15.3 213.588 15.5C213.548 15.7 213.482 15.8933 213.388 16.08C213.562 16.16 213.782 16.22 214.048 16.26C214.315 16.2867 214.615 16.3 214.948 16.3C215.215 16.2867 215.482 16.2533 215.748 16.2C216.015 16.1333 216.235 16.0533 216.408 15.96C216.288 15.7467 216.202 15.5333 216.148 15.32C216.095 15.1067 216.082 14.88 216.108 14.64C216.135 14.3333 216.268 14.0933 216.508 13.92C216.748 13.7467 217.068 13.6733 217.468 13.7C217.762 13.7267 217.995 13.8067 218.168 13.94C218.342 14.06 218.462 14.22 218.528 14.42C218.595 14.62 218.608 14.86 218.568 15.14C218.528 15.58 218.335 15.9533 217.988 16.26C217.655 16.5667 217.195 16.8 216.608 16.96C216.022 17.1067 215.355 17.1667 214.608 17.14ZM227.629 29.28C226.562 29.28 225.649 29.0667 224.889 28.64C224.129 28.2133 223.549 27.6133 223.149 26.84C222.749 26.0533 222.549 25.1333 222.549 24.08C222.549 22.96 222.762 21.98 223.189 21.14C223.629 20.3 224.255 19.6467 225.069 19.18C225.895 18.7 226.882 18.46 228.029 18.46C228.869 18.46 229.589 18.5933 230.189 18.86C230.802 19.1133 231.269 19.4467 231.589 19.86C231.909 20.2733 232.069 20.7267 232.069 21.22C232.069 21.5133 232.009 21.7867 231.889 22.04C231.782 22.28 231.609 22.48 231.369 22.64C231.129 22.7867 230.815 22.86 230.429 22.86C229.975 22.86 229.615 22.76 229.349 22.56C229.095 22.36 228.969 22.0867 228.969 21.74C228.969 21.58 229.009 21.4 229.089 21.2C229.169 20.9867 229.315 20.7 229.529 20.34C229.302 20.1933 229.069 20.0933 228.829 20.04C228.602 19.9867 228.329 19.96 228.009 19.96C227.569 19.96 227.182 20.0933 226.849 20.36C226.515 20.6133 226.255 21 226.069 21.52C225.895 22.04 225.809 22.6733 225.809 23.42C225.809 24.58 226.042 25.4667 226.509 26.08C226.989 26.6933 227.682 27 228.589 27C229.095 27 229.569 26.92 230.009 26.76C230.462 26.6 230.915 26.36 231.369 26.04L232.209 27.12C231.715 27.76 231.089 28.28 230.329 28.68C229.582 29.08 228.682 29.28 227.629 29.28ZM235.728 29V27.72L236.708 27.56C236.922 27.5333 237.062 27.46 237.128 27.34C237.195 27.2067 237.228 26.9667 237.228 26.62V20.02H236.728C236.475 20.02 236.268 20.04 236.108 20.08C235.948 20.1067 235.808 20.1733 235.688 20.28C235.568 20.3733 235.462 20.52 235.368 20.72C235.275 20.92 235.168 21.1867 235.048 21.52L234.668 22.72L233.108 22.36L233.668 18.7H243.948L244.508 22.36L242.948 22.72L242.568 21.48C242.422 21.0533 242.282 20.74 242.148 20.54C242.028 20.3267 241.875 20.1867 241.688 20.12C241.502 20.04 241.235 20 240.888 20H240.408V26.72C240.408 27.0133 240.435 27.2267 240.488 27.36C240.555 27.4933 240.688 27.5733 240.888 27.6L241.868 27.74V29H235.728ZM250.913 29.28C249.806 29.28 248.859 29.0667 248.073 28.64C247.299 28.2133 246.713 27.6133 246.313 26.84C245.913 26.0533 245.713 25.14 245.713 24.1C245.713 22.9133 245.946 21.9 246.413 21.06C246.879 20.22 247.526 19.58 248.353 19.14C249.179 18.6867 250.126 18.46 251.193 18.46C252.073 18.46 252.833 18.6133 253.473 18.92C254.126 19.2133 254.626 19.6533 254.973 20.24C255.333 20.8133 255.513 21.5067 255.513 22.32C255.513 22.6133 255.493 22.9267 255.453 23.26C255.426 23.58 255.373 23.8933 255.293 24.2H249.013C249.053 24.8 249.179 25.3133 249.393 25.74C249.619 26.1667 249.933 26.4867 250.333 26.7C250.733 26.9133 251.199 27.02 251.733 27.02C252.333 27.02 252.873 26.9267 253.353 26.74C253.846 26.54 254.319 26.2667 254.773 25.92L255.653 26.94C255.146 27.6333 254.486 28.2 253.673 28.64C252.859 29.0667 251.939 29.28 250.913 29.28ZM249.013 22.74H252.413C252.439 22.58 252.453 22.42 252.453 22.26C252.466 22.1 252.473 21.9333 252.473 21.76C252.473 21.1467 252.346 20.6867 252.093 20.38C251.853 20.06 251.493 19.9 251.013 19.9C250.599 19.9 250.246 20.0133 249.953 20.24C249.673 20.4667 249.453 20.7933 249.293 21.22C249.146 21.6333 249.053 22.14 249.013 22.74ZM256.862 33.32V32.02L257.622 31.9C257.822 31.8733 257.962 31.7933 258.042 31.66C258.135 31.54 258.182 31.3 258.182 30.94V21.58C258.182 21.1 258.135 20.78 258.042 20.62C257.948 20.46 257.768 20.36 257.502 20.32L256.742 20.22L256.862 18.84L260.662 18.6L260.962 18.76L261.102 20.48H261.162C261.415 20.0667 261.702 19.7133 262.022 19.42C262.355 19.1133 262.735 18.88 263.162 18.72C263.588 18.5467 264.075 18.46 264.622 18.46C265.488 18.46 266.222 18.6533 266.822 19.04C267.435 19.4267 267.902 19.9933 268.222 20.74C268.555 21.4867 268.722 22.4067 268.722 23.5C268.722 24.6733 268.542 25.6933 268.182 26.56C267.822 27.4267 267.275 28.1 266.542 28.58C265.808 29.0467 264.895 29.28 263.802 29.28C263.335 29.28 262.888 29.2267 262.462 29.12C262.035 29.0267 261.668 28.8867 261.362 28.7V30.94C261.362 31.2733 261.402 31.5067 261.482 31.64C261.575 31.7733 261.762 31.8533 262.042 31.88L263.262 32.04V33.32H256.862ZM263.262 27.52C263.742 27.52 264.135 27.3933 264.442 27.14C264.748 26.8733 264.975 26.46 265.122 25.9C265.282 25.34 265.362 24.6267 265.362 23.76C265.362 22.9867 265.288 22.3533 265.142 21.86C264.995 21.3533 264.775 20.98 264.482 20.74C264.202 20.5 263.842 20.38 263.402 20.38C262.975 20.38 262.608 20.48 262.302 20.68C261.995 20.88 261.762 21.16 261.602 21.52C261.442 21.88 261.362 22.3133 261.362 22.82V26.88C261.575 27.0533 261.855 27.2067 262.202 27.34C262.562 27.46 262.915 27.52 263.262 27.52ZM270.285 29V27.72L271.085 27.56C271.285 27.5333 271.418 27.46 271.485 27.34C271.552 27.2067 271.585 26.9667 271.585 26.62V21.06C271.585 20.7267 271.545 20.5 271.465 20.38C271.398 20.2467 271.272 20.1667 271.085 20.14L270.205 19.98L270.365 18.7H275.925V19.98L275.265 20.1C275.052 20.14 274.912 20.2267 274.845 20.36C274.792 20.48 274.765 20.7 274.765 21.02V22.96H278.325V20.96C278.325 20.6667 278.292 20.46 278.225 20.34C278.172 20.22 278.038 20.14 277.825 20.1L277.145 19.98L277.225 18.7H282.825V20L282.085 20.12C281.845 20.16 281.685 20.24 281.605 20.36C281.538 20.48 281.505 20.6933 281.505 21V26.74C281.505 27.0333 281.538 27.24 281.605 27.36C281.685 27.4667 281.838 27.54 282.065 27.58L282.865 27.72V29H277.185V27.72L277.825 27.6C278.038 27.56 278.172 27.48 278.225 27.36C278.292 27.24 278.325 27.0267 278.325 26.72V24.5H274.765V26.72C274.765 27.0267 274.792 27.24 274.845 27.36C274.912 27.48 275.052 27.56 275.265 27.6L275.965 27.74V29H270.285ZM286.146 29.26C285.613 29.26 285.173 29.1867 284.826 29.04C284.479 28.8933 284.153 28.6933 283.846 28.44L284.206 27.46C284.299 27.5133 284.393 27.5533 284.486 27.58C284.579 27.5933 284.673 27.6 284.766 27.6C284.953 27.6 285.106 27.5667 285.226 27.5C285.346 27.42 285.466 27.2733 285.586 27.06C285.719 26.8333 285.879 26.52 286.066 26.12C286.226 25.8 286.413 25.5267 286.626 25.3C286.839 25.06 287.093 24.86 287.386 24.7C287.693 24.54 288.046 24.4133 288.446 24.32L288.486 24.28C287.846 24.2267 287.286 24.0933 286.806 23.88C286.326 23.6667 285.953 23.3733 285.686 23C285.433 22.6133 285.306 22.1467 285.306 21.6C285.306 21.0133 285.473 20.5067 285.806 20.08C286.139 19.64 286.633 19.3 287.286 19.06C287.953 18.82 288.786 18.7 289.786 18.7H295.586V20L294.846 20.12C294.606 20.16 294.453 20.24 294.386 20.36C294.319 20.48 294.286 20.6933 294.286 21V26.74C294.286 27.02 294.319 27.22 294.386 27.34C294.453 27.46 294.599 27.54 294.826 27.58L295.626 27.72V29H289.946V27.72L290.586 27.6C290.799 27.56 290.939 27.48 291.006 27.36C291.073 27.24 291.106 27.0267 291.106 26.72V24.8C291.026 24.8 290.926 24.8 290.806 24.8C290.699 24.8 290.586 24.8067 290.466 24.82C290.359 24.82 290.273 24.8267 290.206 24.84C289.993 24.88 289.806 24.98 289.646 25.14C289.486 25.3 289.333 25.54 289.186 25.86C289.039 26.1667 288.886 26.5667 288.726 27.06C288.553 27.5133 288.346 27.9067 288.106 28.24C287.866 28.5733 287.579 28.8267 287.246 29C286.926 29.1733 286.559 29.26 286.146 29.26ZM290.406 23.6H291.106V19.86C290.973 19.8333 290.839 19.82 290.706 19.82C290.573 19.8067 290.399 19.8 290.186 19.8C289.853 19.8 289.559 19.88 289.306 20.04C289.053 20.1867 288.859 20.4067 288.726 20.7C288.593 20.98 288.526 21.3067 288.526 21.68C288.526 22.3733 288.679 22.8667 288.986 23.16C289.293 23.4533 289.766 23.6 290.406 23.6Z" fill="white"/>
<path d="M0 5C0 2.23858 2.23858 0 5 0H40C42.7614 0 45 2.23858 45 5V40C45 42.7614 42.7614 45 40 45H5C2.23858 45 0 42.7614 0 40V5Z" fill="white"/>
<path d="M18.6678 26.4705C18.8474 26.695 19.0041 26.8629 19.138 26.9739C19.2766 27.085 19.4168 27.1425 19.5583 27.1463C19.6999 27.15 19.8651 27.0909 20.0539 26.969L20.3411 27.4675C19.996 27.9517 19.5671 28.2846 19.0542 28.4663C18.8373 28.5436 18.6043 28.5789 18.3554 28.5723C18.1113 28.5658 17.853 28.4539 17.5803 28.2366C17.3076 28.0241 17.0539 27.7365 16.8194 27.3737C16.5848 27.0109 16.3631 26.624 16.1542 26.213C15.9454 25.802 15.752 25.3597 15.5741 24.8861C15.2362 24.0027 14.978 23.2436 14.7995 22.6088C14.4658 23.0346 14.1662 23.3734 13.9006 23.6252L13.8434 25.7705L13.9057 28.1094C13.4874 28.2252 13.0098 28.276 12.4729 28.2617C11.9408 28.2475 11.5984 28.1749 11.4456 28.0438L11.5963 25.6886L11.7527 19.8167C11.7691 19.2017 11.6014 18.8015 11.2498 18.6163C11.2065 18.5908 11.1365 18.562 11.0396 18.5301C10.9477 18.4984 10.8921 18.4774 10.8728 18.4671C10.8022 18.3675 10.7698 18.2079 10.7756 17.9882C10.7816 17.7637 10.7931 17.6077 10.8101 17.5202C11.0554 17.4779 11.493 17.4652 12.1226 17.4819C12.7523 17.4987 13.3984 17.5403 14.0609 17.6068L13.9394 22.1682C14.0003 22.0819 14.1097 21.9188 14.2675 21.6787C14.4254 21.4338 14.5527 21.2394 14.6494 21.0954C14.7509 20.9516 14.8905 20.7526 15.0682 20.4985C15.251 20.2396 15.408 20.0288 15.5393 19.8663C15.6708 19.6988 15.8324 19.5004 16.0241 19.271C16.2207 19.0418 16.3991 18.8536 16.5593 18.7065C16.7196 18.5593 16.902 18.4054 17.1065 18.2448C17.3161 18.0794 17.5125 17.9479 17.6958 17.8502C18.1118 17.6366 18.5395 17.5357 18.9788 17.5474C19.4181 17.5591 19.7928 17.7009 20.1031 17.973C20.4135 18.2401 20.5625 18.6031 20.5503 19.0619C20.5382 19.5158 20.3723 19.8778 20.0525 20.1477C19.7327 20.4176 19.3629 20.5469 18.9431 20.5357C18.8553 20.5334 18.7676 20.5237 18.6801 20.5068C18.6937 19.9991 18.5956 19.6448 18.3861 19.4439C18.2908 19.3534 18.1772 19.3064 18.0455 19.3029C17.9137 19.2994 17.7659 19.3467 17.6021 19.445C17.4384 19.5383 17.284 19.649 17.139 19.777C16.9939 19.905 16.8155 20.0932 16.6037 20.3415C16.2663 20.7233 15.9028 21.1655 15.5133 21.668C15.6915 21.9462 15.9141 22.3014 16.181 22.7335C16.4528 23.1657 16.6824 23.5308 16.8698 23.8289C17.0573 24.1269 17.2706 24.4623 17.5098 24.835C17.7491 25.2029 17.9558 25.5112 18.1299 25.7601C18.3089 26.0091 18.4882 26.2459 18.6678 26.4705ZM34.194 19.843C34.4911 22.259 34.7171 23.8623 34.8719 24.6528C35.0268 25.4384 35.1802 26.1874 35.3322 26.8997C35.4842 27.612 35.6052 28.2038 35.6952 28.6752C35.3457 28.7782 34.9268 28.8232 34.4387 28.8102C33.9555 28.7973 33.6153 28.7321 33.4182 28.6145C33.0567 27.882 32.6632 25.6002 32.2377 21.7691C32.1668 21.1322 32.1252 20.7672 32.1131 20.6741C31.1531 22.788 30.4921 24.6827 30.1299 26.3582C29.9964 26.9701 29.9263 27.4005 29.9197 27.6494C29.9131 27.8984 29.9092 28.0448 29.908 28.0887C29.5996 28.2954 29.199 28.3922 28.706 28.3791C28.1642 28.3646 27.8351 28.2484 27.7188 28.0304C27.6512 27.8186 27.4898 27.2745 27.2348 26.3983C26.5504 24.0355 25.9392 22.0409 25.4013 20.4147L25.3607 20.8386C25.2457 22.4035 25.1211 23.5065 24.9868 24.1477C24.8525 24.7889 24.731 25.3156 24.6223 25.7279C24.5138 26.1353 24.3869 26.4983 24.2416 26.8168C24.1014 27.1305 23.9423 27.4194 23.7643 27.6833C23.3571 28.2976 22.8631 28.5971 22.2823 28.5816C21.7991 28.5687 21.4181 28.3828 21.1395 28.0236C21.0073 27.8541 20.9437 27.6741 20.9488 27.4837C21.3711 27.2165 21.7619 26.846 22.1214 26.372C22.4808 25.898 22.7774 25.3979 23.0112 24.8717C23.2451 24.3455 23.4506 23.7819 23.6278 23.181C23.9981 21.9306 24.1956 20.8442 24.2201 19.9217C24.2282 19.619 24.2114 19.4232 24.1698 19.3342C24.1284 19.2403 24.0985 19.1711 24.0801 19.1266C24.0619 19.0773 24.024 19.0323 23.9665 18.9917C23.909 18.9511 23.8706 18.9257 23.8513 18.9154C23.8369 18.9052 23.7934 18.887 23.7209 18.8606C23.6484 18.8294 23.6074 18.8112 23.5978 18.8061C23.5223 18.7064 23.4875 18.5442 23.4935 18.3197C23.4996 18.0903 23.5135 17.9368 23.5351 17.8592C23.7804 17.8169 24.1081 17.8012 24.5181 17.8121C24.933 17.8232 25.4742 17.862 26.1416 17.9287C26.3746 17.9837 27.0799 19.651 28.2577 22.9306C28.7032 24.1734 28.9839 24.9136 29.0997 25.1511C29.3872 24.26 30.2949 21.9079 31.8228 18.0947C32.3118 18.0735 32.6319 18.0649 32.7833 18.069C32.9394 18.0731 33.1094 18.1094 33.2932 18.1778C33.482 18.2414 33.6652 18.4246 33.8428 18.7273C34.0203 19.03 34.1374 19.4019 34.194 19.843Z" fill="black"/>
</svg>
