<svg width="33" height="33" viewBox="0 0 33 33" fill="none" xmlns="http://www.w3.org/2000/svg">
<path fill-rule="evenodd" clip-rule="evenodd" d="M27.5 6C29.7782 6 31.625 7.84683 31.625 10.125V23.875C31.625 26.1532 29.7782 28 27.5 28H5.5C3.22183 28 1.375 26.1532 1.375 23.875V10.125C1.375 7.84683 3.22183 6 5.5 6H27.5ZM26.4727 8.75H6.52737L15.648 15.9505C16.1476 16.3449 16.8524 16.3449 17.3521 15.9505L26.4727 8.75ZM4.125 10.3571V23.875C4.125 24.6344 4.74061 25.25 5.5 25.25H27.5C28.2594 25.25 28.875 24.6344 28.875 23.875V10.3571L19.056 18.1089C17.5574 19.2921 15.4426 19.2921 13.944 18.1089L4.125 10.3571Z" fill="black"/>
</svg>
