<svg width="339" height="45" viewBox="0 0 339 45" fill="none" xmlns="http://www.w3.org/2000/svg">
<path d="M67.0194 29.3015C66.4194 29.3015 65.9127 29.1881 65.4994 28.9615C65.0861 28.7348 64.7261 28.3681 64.4194 27.8615C64.1261 27.3548 63.8394 26.6948 63.5594 25.8815C63.3727 25.3615 63.1927 24.9015 63.0194 24.5015C62.8594 24.0881 62.6861 23.7481 62.4994 23.4815C62.3127 23.2015 62.1061 22.9948 61.8794 22.8615C61.6661 22.7281 61.4127 22.6615 61.1194 22.6615H60.3194V26.6015C60.3194 26.9481 60.3594 27.1815 60.4394 27.3015C60.5194 27.4215 60.6927 27.5081 60.9594 27.5615L61.8394 27.7015V29.0215H55.4594V27.7015L56.3594 27.5615C56.6261 27.5081 56.7927 27.4148 56.8594 27.2815C56.9394 27.1348 56.9794 26.8881 56.9794 26.5415V17.3615C56.9794 17.0148 56.9394 16.7815 56.8594 16.6615C56.7794 16.5281 56.5994 16.4415 56.3194 16.4015L55.4594 16.2815V14.9615H61.8194V16.2815L60.9194 16.4215C60.6661 16.4615 60.4994 16.5548 60.4194 16.7015C60.3527 16.8481 60.3194 17.0948 60.3194 17.4415V21.0815C60.5594 21.0681 60.7727 21.0615 60.9594 21.0615C61.1594 21.0481 61.3327 21.0281 61.4794 21.0015C61.6394 20.9615 61.7727 20.9148 61.8794 20.8615C62.1861 20.7148 62.4461 20.5481 62.6594 20.3615C62.8727 20.1615 63.0727 19.8748 63.2594 19.5015C63.4594 19.1148 63.6661 18.5815 63.8794 17.9015C64.1194 17.1548 64.3861 16.5548 64.6794 16.1015C64.9727 15.6348 65.3061 15.2948 65.6794 15.0815C66.0661 14.8681 66.5127 14.7615 67.0194 14.7615C67.4061 14.7615 67.7594 14.8348 68.0794 14.9815C68.3994 15.1148 68.6527 15.2948 68.8394 15.5215C69.0394 15.7481 69.1394 16.0148 69.1394 16.3215C69.1394 16.6548 69.0594 16.9748 68.8994 17.2815C68.7527 17.5748 68.5527 17.8148 68.2994 18.0015C68.0594 18.1881 67.7861 18.2815 67.4794 18.2815C67.1194 18.2815 66.8194 18.1615 66.5794 17.9215C66.3527 17.6815 66.1527 17.4081 65.9794 17.1015C65.8994 17.3015 65.8127 17.5081 65.7194 17.7215C65.6394 17.9215 65.5461 18.1615 65.4394 18.4415C65.3327 18.7215 65.1861 19.0815 64.9994 19.5215C64.8794 19.8281 64.7327 20.1215 64.5594 20.4015C64.3994 20.6815 64.2061 20.9281 63.9794 21.1415C63.7527 21.3548 63.4661 21.5415 63.1194 21.7015V21.7615C63.7461 21.8415 64.2861 22.0348 64.7394 22.3415C65.2061 22.6481 65.5994 23.0348 65.9194 23.5015C66.2527 23.9681 66.5327 24.4681 66.7594 25.0015C66.9327 25.4148 67.0861 25.7748 67.2194 26.0815C67.3527 26.3748 67.4794 26.6215 67.5994 26.8215C67.7194 27.0215 67.8461 27.1748 67.9794 27.2815C68.1127 27.3748 68.2594 27.4215 68.4194 27.4215C68.5661 27.4215 68.7061 27.4015 68.8394 27.3615C68.9861 27.3081 69.1261 27.2481 69.2594 27.1815L69.6994 28.2215C69.3127 28.5948 68.9061 28.8681 68.4794 29.0415C68.0527 29.2148 67.5661 29.3015 67.0194 29.3015ZM75.618 29.3015C74.4847 29.3015 73.518 29.1015 72.718 28.7015C71.918 28.2881 71.3047 27.6948 70.878 26.9215C70.4513 26.1481 70.238 25.2015 70.238 24.0815C70.238 22.8415 70.4713 21.8081 70.938 20.9815C71.418 20.1548 72.0913 19.5348 72.958 19.1215C73.8247 18.6948 74.8313 18.4815 75.978 18.4815C77.0313 18.4815 77.9513 18.6748 78.738 19.0615C79.5247 19.4348 80.138 20.0081 80.578 20.7815C81.0313 21.5415 81.258 22.5015 81.258 23.6615C81.258 24.8481 81.0313 25.8681 80.578 26.7215C80.1247 27.5615 79.478 28.2015 78.638 28.6415C77.798 29.0815 76.7913 29.3015 75.618 29.3015ZM75.878 27.6815C76.358 27.6815 76.7447 27.5548 77.038 27.3015C77.3313 27.0348 77.5447 26.6348 77.678 26.1015C77.8113 25.5681 77.878 24.8948 77.878 24.0815C77.878 23.3481 77.8247 22.7281 77.718 22.2215C77.6247 21.7148 77.478 21.3081 77.278 21.0015C77.0913 20.6815 76.858 20.4481 76.578 20.3015C76.3113 20.1548 76.0047 20.0815 75.658 20.0815C75.2313 20.0815 74.858 20.1948 74.538 20.4215C74.2313 20.6348 73.998 20.9881 73.838 21.4815C73.678 21.9748 73.598 22.6348 73.598 23.4615C73.598 24.4081 73.678 25.1948 73.838 25.8215C74.0113 26.4481 74.2647 26.9148 74.598 27.2215C74.9447 27.5281 75.3713 27.6815 75.878 27.6815ZM82.8185 29.0215V27.7415L83.6185 27.5815C83.8318 27.5548 83.9718 27.4815 84.0385 27.3615C84.1051 27.2281 84.1385 26.9881 84.1385 26.6415V21.0815C84.1385 20.7615 84.1051 20.5348 84.0385 20.4015C83.9718 20.2681 83.8318 20.1881 83.6185 20.1615L82.7185 20.0015L82.8785 18.7215H88.8385C89.7185 18.7215 90.4451 18.8081 91.0185 18.9815C91.5918 19.1548 92.0185 19.4215 92.2985 19.7815C92.5918 20.1281 92.7385 20.5681 92.7385 21.1015C92.7385 21.6748 92.5185 22.1881 92.0785 22.6415C91.6518 23.0815 90.9851 23.3748 90.0785 23.5215V23.5415C90.7185 23.6081 91.2718 23.7348 91.7385 23.9215C92.2185 24.0948 92.5918 24.3481 92.8585 24.6815C93.1251 25.0148 93.2585 25.4615 93.2585 26.0215C93.2585 26.5681 93.1118 27.0681 92.8185 27.5215C92.5251 27.9748 92.0518 28.3415 91.3985 28.6215C90.7451 28.8881 89.8718 29.0215 88.7785 29.0215H82.8185ZM88.3385 27.7615C88.6718 27.7615 88.9651 27.7015 89.2185 27.5815C89.4851 27.4615 89.6918 27.2681 89.8385 27.0015C89.9985 26.7348 90.0785 26.4015 90.0785 26.0015C90.0785 25.4948 89.9385 25.0948 89.6585 24.8015C89.3918 24.5081 88.9785 24.3615 88.4185 24.3615H87.3185V27.7215C87.4785 27.7348 87.6451 27.7481 87.8185 27.7615C88.0051 27.7615 88.1785 27.7615 88.3385 27.7615ZM87.3185 23.1615H88.3185C88.7718 23.1615 89.0985 23.0081 89.2985 22.7015C89.4985 22.3815 89.5985 21.9615 89.5985 21.4415C89.5985 20.9215 89.4785 20.5481 89.2385 20.3215C88.9985 20.0815 88.6385 19.9615 88.1585 19.9615C88.0251 19.9615 87.8785 19.9615 87.7185 19.9615C87.5718 19.9615 87.4385 19.9748 87.3185 20.0015V23.1615ZM97.712 29.3015C96.752 29.3015 95.9987 29.0548 95.452 28.5615C94.9187 28.0681 94.652 27.4081 94.652 26.5815C94.652 25.7948 94.852 25.1748 95.252 24.7215C95.6654 24.2681 96.292 23.9415 97.132 23.7415C97.9854 23.5281 99.092 23.3881 100.452 23.3215V21.8815C100.452 21.3881 100.399 20.9815 100.292 20.6615C100.185 20.3415 100.005 20.1081 99.752 19.9615C99.512 19.8015 99.1787 19.7215 98.752 19.7215C98.4454 19.7215 98.132 19.7681 97.812 19.8615C97.5054 19.9548 97.2587 20.0748 97.072 20.2215C97.2187 20.4348 97.332 20.6215 97.412 20.7815C97.5054 20.9415 97.572 21.0815 97.612 21.2015C97.652 21.3081 97.672 21.4081 97.672 21.5015C97.672 21.7948 97.5387 22.0415 97.272 22.2415C97.0187 22.4415 96.6587 22.5415 96.192 22.5415C95.7254 22.5415 95.3787 22.4348 95.152 22.2215C94.9254 21.9948 94.812 21.6948 94.812 21.3215C94.812 20.8015 94.9987 20.3281 95.372 19.9015C95.7587 19.4748 96.2854 19.1348 96.952 18.8815C97.632 18.6281 98.412 18.5015 99.292 18.5015C100.279 18.5015 101.092 18.6348 101.732 18.9015C102.372 19.1681 102.845 19.5881 103.152 20.1615C103.472 20.7215 103.632 21.4415 103.632 22.3215V26.5815C103.632 26.8881 103.692 27.1148 103.812 27.2615C103.932 27.4081 104.125 27.4815 104.392 27.4815C104.525 27.4815 104.659 27.4681 104.792 27.4415C104.925 27.4148 105.059 27.3815 105.192 27.3415L105.432 28.3815C105.165 28.6348 104.812 28.8481 104.372 29.0215C103.932 29.2081 103.485 29.3015 103.032 29.3015C102.379 29.3015 101.865 29.1481 101.492 28.8415C101.119 28.5348 100.879 28.1281 100.772 27.6215C100.585 27.9415 100.352 28.2281 100.072 28.4815C99.8054 28.7348 99.472 28.9348 99.072 29.0815C98.6854 29.2281 98.232 29.3015 97.712 29.3015ZM98.972 27.6215C99.2654 27.6215 99.5187 27.5548 99.732 27.4215C99.9587 27.2881 100.132 27.1081 100.252 26.8815C100.385 26.6415 100.452 26.3681 100.452 26.0615V24.5615C99.852 24.5615 99.352 24.6215 98.952 24.7415C98.552 24.8481 98.2587 25.0281 98.072 25.2815C97.8854 25.5215 97.792 25.8415 97.792 26.2415C97.792 26.6681 97.892 27.0081 98.092 27.2615C98.292 27.5015 98.5854 27.6215 98.972 27.6215ZM107.81 29.2815C107.263 29.2815 106.803 29.1348 106.43 28.8415C106.057 28.5481 105.87 28.1615 105.87 27.6815C105.87 27.4015 105.937 27.1415 106.07 26.9015C106.203 26.6481 106.383 26.4481 106.61 26.3015C106.837 26.1548 107.083 26.0815 107.35 26.0815C107.643 26.0815 107.897 26.1881 108.11 26.4015C108.323 26.6015 108.53 26.8415 108.73 27.1215C108.81 27.0148 108.89 26.8548 108.97 26.6415C109.05 26.4148 109.13 26.1548 109.21 25.8615C109.277 25.6081 109.337 25.3015 109.39 24.9415C109.457 24.5815 109.51 24.1948 109.55 23.7815C109.59 23.3681 109.623 22.9348 109.65 22.4815C109.677 22.0281 109.69 21.5681 109.69 21.1015C109.69 20.7815 109.65 20.5548 109.57 20.4215C109.49 20.2881 109.343 20.2015 109.13 20.1615L108.21 20.0215L108.31 18.7215H118.15V20.0215L117.39 20.1615C117.163 20.1881 117.01 20.2615 116.93 20.3815C116.85 20.4881 116.81 20.6681 116.81 20.9215V26.7615C116.81 27.0548 116.843 27.2615 116.91 27.3815C116.977 27.4881 117.13 27.5615 117.37 27.6015L118.15 27.7415V29.0215H112.25V27.7615L113.11 27.6015C113.323 27.5748 113.463 27.5015 113.53 27.3815C113.597 27.2481 113.63 27.0281 113.63 26.7215V20.2615H111.35C111.35 20.7281 111.337 21.1948 111.31 21.6615C111.297 22.1148 111.27 22.5681 111.23 23.0215C111.203 23.4615 111.163 23.8815 111.11 24.2815C111.07 24.6815 111.023 25.0415 110.97 25.3615C110.85 25.9881 110.697 26.5415 110.51 27.0215C110.337 27.5015 110.117 27.9148 109.85 28.2615C109.597 28.5948 109.297 28.8481 108.95 29.0215C108.617 29.1948 108.237 29.2815 107.81 29.2815ZM119.693 29.0215V27.7415L120.493 27.5815C120.693 27.5548 120.826 27.4815 120.893 27.3615C120.96 27.2281 120.993 26.9881 120.993 26.6415V21.0815C120.993 20.7481 120.96 20.5215 120.893 20.4015C120.826 20.2681 120.693 20.1881 120.493 20.1615L119.613 20.0015L119.773 18.7215H125.733V20.0015L124.773 20.1615C124.533 20.2015 124.373 20.2881 124.293 20.4215C124.213 20.5415 124.173 20.7548 124.173 21.0615V22.6015C124.48 22.5481 124.773 22.5148 125.053 22.5015C125.333 22.4881 125.653 22.4815 126.013 22.4815C126.853 22.4815 127.573 22.6015 128.173 22.8415C128.773 23.0815 129.233 23.4281 129.553 23.8815C129.886 24.3215 130.053 24.8681 130.053 25.5215C130.053 26.3481 129.846 27.0215 129.433 27.5415C129.02 28.0481 128.413 28.4215 127.613 28.6615C126.813 28.9015 125.833 29.0215 124.673 29.0215H119.693ZM125.053 27.7215C125.64 27.7215 126.093 27.5548 126.413 27.2215C126.733 26.8881 126.893 26.3815 126.893 25.7015C126.893 25.0881 126.733 24.6415 126.413 24.3615C126.106 24.0681 125.68 23.9215 125.133 23.9215C124.946 23.9215 124.773 23.9281 124.613 23.9415C124.466 23.9548 124.32 23.9681 124.173 23.9815V27.6415C124.32 27.6681 124.46 27.6881 124.593 27.7015C124.74 27.7148 124.893 27.7215 125.053 27.7215ZM136.568 29.3015C135.501 29.3015 134.588 29.0881 133.828 28.6615C133.068 28.2348 132.488 27.6348 132.088 26.8615C131.688 26.0748 131.488 25.1548 131.488 24.1015C131.488 22.9815 131.701 22.0015 132.128 21.1615C132.568 20.3215 133.195 19.6681 134.008 19.2015C134.835 18.7215 135.821 18.4815 136.968 18.4815C137.808 18.4815 138.528 18.6148 139.128 18.8815C139.741 19.1348 140.208 19.4681 140.528 19.8815C140.848 20.2948 141.008 20.7481 141.008 21.2415C141.008 21.5348 140.948 21.8081 140.828 22.0615C140.721 22.3015 140.548 22.5015 140.308 22.6615C140.068 22.8081 139.755 22.8815 139.368 22.8815C138.915 22.8815 138.555 22.7815 138.288 22.5815C138.035 22.3815 137.908 22.1081 137.908 21.7615C137.908 21.6015 137.948 21.4215 138.028 21.2215C138.108 21.0081 138.255 20.7215 138.468 20.3615C138.241 20.2148 138.008 20.1148 137.768 20.0615C137.541 20.0081 137.268 19.9815 136.948 19.9815C136.508 19.9815 136.121 20.1148 135.788 20.3815C135.455 20.6348 135.195 21.0215 135.008 21.5415C134.835 22.0615 134.748 22.6948 134.748 23.4415C134.748 24.6015 134.981 25.4881 135.448 26.1015C135.928 26.7148 136.621 27.0215 137.528 27.0215C138.035 27.0215 138.508 26.9415 138.948 26.7815C139.401 26.6215 139.855 26.3815 140.308 26.0615L141.148 27.1415C140.655 27.7815 140.028 28.3015 139.268 28.7015C138.521 29.1015 137.621 29.3015 136.568 29.3015ZM142.408 29.0215V27.7415L143.208 27.5815C143.408 27.5548 143.541 27.4815 143.608 27.3615C143.674 27.2281 143.708 26.9881 143.708 26.6415V21.0815C143.708 20.7481 143.674 20.5215 143.608 20.4015C143.541 20.2681 143.408 20.1881 143.208 20.1615L142.328 20.0015L142.488 18.7215H148.448V20.0015L147.488 20.1615C147.248 20.2015 147.088 20.2881 147.008 20.4215C146.928 20.5415 146.888 20.7548 146.888 21.0615V22.6015C147.194 22.5481 147.488 22.5148 147.768 22.5015C148.048 22.4881 148.368 22.4815 148.728 22.4815C149.568 22.4815 150.288 22.6015 150.888 22.8415C151.488 23.0815 151.948 23.4281 152.268 23.8815C152.601 24.3215 152.768 24.8681 152.768 25.5215C152.768 26.3481 152.561 27.0215 152.148 27.5415C151.734 28.0481 151.128 28.4215 150.328 28.6615C149.528 28.9015 148.548 29.0215 147.388 29.0215H142.408ZM147.768 27.7215C148.354 27.7215 148.808 27.5548 149.128 27.2215C149.448 26.8881 149.608 26.3815 149.608 25.7015C149.608 25.0881 149.448 24.6415 149.128 24.3615C148.821 24.0681 148.394 23.9215 147.848 23.9215C147.661 23.9215 147.488 23.9281 147.328 23.9415C147.181 23.9548 147.034 23.9681 146.888 23.9815V27.6415C147.034 27.6681 147.174 27.6881 147.308 27.7015C147.454 27.7148 147.608 27.7215 147.768 27.7215ZM163.983 29.1815C163.529 29.1815 163.129 29.1148 162.783 28.9815C162.449 28.8481 162.149 28.6281 161.883 28.3215C161.629 28.0015 161.389 27.5681 161.163 27.0215C160.963 26.5548 160.783 26.1615 160.623 25.8415C160.463 25.5215 160.303 25.2615 160.143 25.0615C159.983 24.8615 159.783 24.7148 159.543 24.6215C159.436 24.5415 159.323 24.4948 159.203 24.4815C159.083 24.4548 158.936 24.4415 158.763 24.4415V26.7415C158.763 27.0481 158.789 27.2615 158.843 27.3815C158.909 27.5015 159.049 27.5815 159.263 27.6215L159.963 27.7615V29.0215H154.283V27.7415L155.083 27.5815C155.283 27.5548 155.416 27.4815 155.483 27.3615C155.549 27.2281 155.583 26.9881 155.583 26.6415V21.0815C155.583 20.7481 155.543 20.5215 155.463 20.4015C155.396 20.2681 155.269 20.1881 155.083 20.1615L154.203 20.0015L154.363 18.7215H159.923V20.0015L159.263 20.1215C159.049 20.1615 158.909 20.2481 158.843 20.3815C158.789 20.5015 158.763 20.7215 158.763 21.0415V23.2415C158.976 23.2548 159.163 23.2548 159.323 23.2415C159.483 23.2148 159.636 23.1615 159.783 23.0815C159.929 23.0148 160.069 22.9081 160.203 22.7615C160.336 22.6015 160.476 22.3748 160.623 22.0815C160.783 21.7748 160.956 21.3948 161.143 20.9415C161.383 20.3681 161.636 19.9148 161.903 19.5815C162.169 19.2348 162.469 18.9815 162.803 18.8215C163.136 18.6615 163.503 18.5815 163.903 18.5815C164.409 18.5815 164.829 18.7148 165.163 18.9815C165.509 19.2481 165.683 19.6015 165.683 20.0415C165.683 20.3081 165.609 20.5681 165.463 20.8215C165.329 21.0615 165.156 21.2615 164.943 21.4215C164.729 21.5681 164.496 21.6415 164.243 21.6415C163.963 21.6415 163.716 21.5548 163.503 21.3815C163.289 21.1948 163.089 20.9015 162.903 20.5015C162.836 20.6348 162.763 20.7815 162.683 20.9415C162.603 21.1015 162.516 21.2748 162.423 21.4615C162.343 21.6348 162.249 21.8281 162.143 22.0415C161.983 22.4148 161.803 22.7281 161.603 22.9815C161.416 23.2348 161.169 23.4481 160.863 23.6215V23.6615C161.329 23.7281 161.743 23.8415 162.103 24.0015C162.476 24.1615 162.803 24.3815 163.083 24.6615C163.363 24.9415 163.603 25.3081 163.803 25.7615C164.123 26.4681 164.389 26.9481 164.603 27.2015C164.816 27.4548 165.043 27.5815 165.283 27.5815C165.376 27.5815 165.463 27.5681 165.543 27.5415C165.636 27.5148 165.763 27.4681 165.923 27.4015L166.243 28.3815C165.963 28.6348 165.623 28.8348 165.223 28.9815C164.836 29.1148 164.423 29.1815 163.983 29.1815ZM170.232 29.3015C169.272 29.3015 168.518 29.0548 167.972 28.5615C167.438 28.0681 167.172 27.4081 167.172 26.5815C167.172 25.7948 167.372 25.1748 167.772 24.7215C168.185 24.2681 168.812 23.9415 169.652 23.7415C170.505 23.5281 171.612 23.3881 172.972 23.3215V21.8815C172.972 21.3881 172.918 20.9815 172.812 20.6615C172.705 20.3415 172.525 20.1081 172.272 19.9615C172.032 19.8015 171.698 19.7215 171.272 19.7215C170.965 19.7215 170.652 19.7681 170.332 19.8615C170.025 19.9548 169.778 20.0748 169.592 20.2215C169.738 20.4348 169.852 20.6215 169.932 20.7815C170.025 20.9415 170.092 21.0815 170.132 21.2015C170.172 21.3081 170.192 21.4081 170.192 21.5015C170.192 21.7948 170.058 22.0415 169.792 22.2415C169.538 22.4415 169.178 22.5415 168.712 22.5415C168.245 22.5415 167.898 22.4348 167.672 22.2215C167.445 21.9948 167.332 21.6948 167.332 21.3215C167.332 20.8015 167.518 20.3281 167.892 19.9015C168.278 19.4748 168.805 19.1348 169.472 18.8815C170.152 18.6281 170.932 18.5015 171.812 18.5015C172.798 18.5015 173.612 18.6348 174.252 18.9015C174.892 19.1681 175.365 19.5881 175.672 20.1615C175.992 20.7215 176.152 21.4415 176.152 22.3215V26.5815C176.152 26.8881 176.212 27.1148 176.332 27.2615C176.452 27.4081 176.645 27.4815 176.912 27.4815C177.045 27.4815 177.178 27.4681 177.312 27.4415C177.445 27.4148 177.578 27.3815 177.712 27.3415L177.952 28.3815C177.685 28.6348 177.332 28.8481 176.892 29.0215C176.452 29.2081 176.005 29.3015 175.552 29.3015C174.898 29.3015 174.385 29.1481 174.012 28.8415C173.638 28.5348 173.398 28.1281 173.292 27.6215C173.105 27.9415 172.872 28.2281 172.592 28.4815C172.325 28.7348 171.992 28.9348 171.592 29.0815C171.205 29.2281 170.752 29.3015 170.232 29.3015ZM171.492 27.6215C171.785 27.6215 172.038 27.5548 172.252 27.4215C172.478 27.2881 172.652 27.1081 172.772 26.8815C172.905 26.6415 172.972 26.3681 172.972 26.0615V24.5615C172.372 24.5615 171.872 24.6215 171.472 24.7415C171.072 24.8481 170.778 25.0281 170.592 25.2815C170.405 25.5215 170.312 25.8415 170.312 26.2415C170.312 26.6681 170.412 27.0081 170.612 27.2615C170.812 27.5015 171.105 27.6215 171.492 27.6215ZM182.798 29.0215V27.7415L183.598 27.5815C183.798 27.5548 183.931 27.4815 183.998 27.3615C184.065 27.2281 184.098 26.9881 184.098 26.6415V21.0815C184.098 20.7481 184.065 20.5215 183.998 20.4015C183.931 20.2681 183.798 20.1881 183.598 20.1615L182.718 20.0015L182.898 18.7215H187.538L189.598 24.0415L189.698 24.0615L191.818 18.7215H196.798V20.0215L196.058 20.1415C195.818 20.1815 195.658 20.2615 195.578 20.3815C195.511 20.5015 195.478 20.7148 195.478 21.0215V26.7615C195.478 27.0415 195.511 27.2415 195.578 27.3615C195.658 27.4815 195.811 27.5615 196.038 27.6015L196.838 27.7415V29.0215H191.158V27.7415L191.798 27.6215C192.011 27.5815 192.145 27.5015 192.198 27.3815C192.265 27.2615 192.298 27.0481 192.298 26.7415V21.5215H192.238L190.198 26.7015L187.818 26.8415L185.718 21.5015L185.638 21.4815V26.7415C185.638 27.0348 185.665 27.2481 185.718 27.3815C185.785 27.5015 185.918 27.5815 186.118 27.6215L186.838 27.7615V29.0215H182.798ZM201.345 29.3015C200.385 29.3015 199.632 29.0548 199.085 28.5615C198.552 28.0681 198.285 27.4081 198.285 26.5815C198.285 25.7948 198.485 25.1748 198.885 24.7215C199.298 24.2681 199.925 23.9415 200.765 23.7415C201.618 23.5281 202.725 23.3881 204.085 23.3215V21.8815C204.085 21.3881 204.032 20.9815 203.925 20.6615C203.818 20.3415 203.638 20.1081 203.385 19.9615C203.145 19.8015 202.812 19.7215 202.385 19.7215C202.078 19.7215 201.765 19.7681 201.445 19.8615C201.138 19.9548 200.892 20.0748 200.705 20.2215C200.852 20.4348 200.965 20.6215 201.045 20.7815C201.138 20.9415 201.205 21.0815 201.245 21.2015C201.285 21.3081 201.305 21.4081 201.305 21.5015C201.305 21.7948 201.172 22.0415 200.905 22.2415C200.652 22.4415 200.292 22.5415 199.825 22.5415C199.358 22.5415 199.012 22.4348 198.785 22.2215C198.558 21.9948 198.445 21.6948 198.445 21.3215C198.445 20.8015 198.632 20.3281 199.005 19.9015C199.392 19.4748 199.918 19.1348 200.585 18.8815C201.265 18.6281 202.045 18.5015 202.925 18.5015C203.912 18.5015 204.725 18.6348 205.365 18.9015C206.005 19.1681 206.478 19.5881 206.785 20.1615C207.105 20.7215 207.265 21.4415 207.265 22.3215V26.5815C207.265 26.8881 207.325 27.1148 207.445 27.2615C207.565 27.4081 207.758 27.4815 208.025 27.4815C208.158 27.4815 208.292 27.4681 208.425 27.4415C208.558 27.4148 208.692 27.3815 208.825 27.3415L209.065 28.3815C208.798 28.6348 208.445 28.8481 208.005 29.0215C207.565 29.2081 207.118 29.3015 206.665 29.3015C206.012 29.3015 205.498 29.1481 205.125 28.8415C204.752 28.5348 204.512 28.1281 204.405 27.6215C204.218 27.9415 203.985 28.2281 203.705 28.4815C203.438 28.7348 203.105 28.9348 202.705 29.0815C202.318 29.2281 201.865 29.3015 201.345 29.3015ZM202.605 27.6215C202.898 27.6215 203.152 27.5548 203.365 27.4215C203.592 27.2881 203.765 27.1081 203.885 26.8815C204.018 26.6415 204.085 26.3681 204.085 26.0615V24.5615C203.485 24.5615 202.985 24.6215 202.585 24.7415C202.185 24.8481 201.892 25.0281 201.705 25.2815C201.518 25.5215 201.425 25.8415 201.425 26.2415C201.425 26.6681 201.525 27.0081 201.725 27.2615C201.925 27.5015 202.218 27.6215 202.605 27.6215ZM209.848 29.0215V27.7415L210.648 27.5815C210.861 27.5548 211.001 27.4815 211.068 27.3615C211.134 27.2281 211.168 26.9881 211.168 26.6415V21.0815C211.168 20.7481 211.134 20.5215 211.068 20.4015C211.001 20.2815 210.868 20.2015 210.668 20.1615L209.828 20.0015L209.908 18.7215H215.508V20.0015L214.848 20.1215C214.634 20.1615 214.494 20.2481 214.428 20.3815C214.374 20.5015 214.348 20.7215 214.348 21.0415V24.5215L218.008 21.3215V20.9815C218.008 20.6881 217.974 20.4815 217.908 20.3615C217.841 20.2415 217.701 20.1615 217.488 20.1215L216.808 20.0015L216.908 18.7215H222.488V20.0215L221.748 20.1415C221.508 20.1815 221.354 20.2615 221.288 20.3815C221.221 20.5015 221.188 20.7148 221.188 21.0215V26.7615C221.188 27.0548 221.221 27.2615 221.288 27.3815C221.354 27.4881 221.501 27.5615 221.728 27.6015L222.528 27.7415V29.0215H216.848V27.7415L217.488 27.6215C217.701 27.5815 217.841 27.5015 217.908 27.3815C217.974 27.2615 218.008 27.0481 218.008 26.7415V23.1615L214.348 26.3615V26.7415C214.348 27.0481 214.374 27.2615 214.428 27.3815C214.494 27.5015 214.628 27.5815 214.828 27.6215L215.548 27.7615V29.0215H209.848ZM216.048 17.1615C214.914 17.1348 214.021 16.9281 213.368 16.5415C212.714 16.1415 212.401 15.6081 212.428 14.9415C212.454 14.5281 212.601 14.2148 212.868 14.0015C213.134 13.7748 213.448 13.6748 213.808 13.7015C214.261 13.7281 214.588 13.8481 214.788 14.0615C215.001 14.2615 215.101 14.5215 215.088 14.8415C215.101 15.0948 215.081 15.3215 215.028 15.5215C214.988 15.7215 214.921 15.9148 214.828 16.1015C215.001 16.1815 215.221 16.2415 215.488 16.2815C215.754 16.3081 216.054 16.3215 216.388 16.3215C216.654 16.3081 216.921 16.2748 217.188 16.2215C217.454 16.1548 217.674 16.0748 217.848 15.9815C217.728 15.7681 217.641 15.5548 217.588 15.3415C217.534 15.1281 217.521 14.9015 217.548 14.6615C217.574 14.3548 217.708 14.1148 217.948 13.9415C218.188 13.7681 218.508 13.6948 218.908 13.7215C219.201 13.7481 219.434 13.8281 219.608 13.9615C219.781 14.0815 219.901 14.2415 219.968 14.4415C220.034 14.6415 220.048 14.8815 220.008 15.1615C219.968 15.6015 219.774 15.9748 219.428 16.2815C219.094 16.5881 218.634 16.8215 218.048 16.9815C217.461 17.1281 216.794 17.1881 216.048 17.1615ZM229.068 29.3015C228.001 29.3015 227.088 29.0881 226.328 28.6615C225.568 28.2348 224.988 27.6348 224.588 26.8615C224.188 26.0748 223.988 25.1548 223.988 24.1015C223.988 22.9815 224.201 22.0015 224.628 21.1615C225.068 20.3215 225.695 19.6681 226.508 19.2015C227.335 18.7215 228.321 18.4815 229.468 18.4815C230.308 18.4815 231.028 18.6148 231.628 18.8815C232.241 19.1348 232.708 19.4681 233.028 19.8815C233.348 20.2948 233.508 20.7481 233.508 21.2415C233.508 21.5348 233.448 21.8081 233.328 22.0615C233.221 22.3015 233.048 22.5015 232.808 22.6615C232.568 22.8081 232.255 22.8815 231.868 22.8815C231.415 22.8815 231.055 22.7815 230.788 22.5815C230.535 22.3815 230.408 22.1081 230.408 21.7615C230.408 21.6015 230.448 21.4215 230.528 21.2215C230.608 21.0081 230.755 20.7215 230.968 20.3615C230.741 20.2148 230.508 20.1148 230.268 20.0615C230.041 20.0081 229.768 19.9815 229.448 19.9815C229.008 19.9815 228.621 20.1148 228.288 20.3815C227.955 20.6348 227.695 21.0215 227.508 21.5415C227.335 22.0615 227.248 22.6948 227.248 23.4415C227.248 24.6015 227.481 25.4881 227.948 26.1015C228.428 26.7148 229.121 27.0215 230.028 27.0215C230.535 27.0215 231.008 26.9415 231.448 26.7815C231.901 26.6215 232.355 26.3815 232.808 26.0615L233.648 27.1415C233.155 27.7815 232.528 28.3015 231.768 28.7015C231.021 29.1015 230.121 29.3015 229.068 29.3015ZM237.168 29.0215V27.7415L238.148 27.5815C238.361 27.5548 238.501 27.4815 238.568 27.3615C238.634 27.2281 238.668 26.9881 238.668 26.6415V20.0415H238.168C237.914 20.0415 237.708 20.0615 237.548 20.1015C237.388 20.1281 237.248 20.1948 237.128 20.3015C237.008 20.3948 236.901 20.5415 236.808 20.7415C236.714 20.9415 236.608 21.2081 236.488 21.5415L236.108 22.7415L234.548 22.3815L235.108 18.7215H245.388L245.948 22.3815L244.388 22.7415L244.008 21.5015C243.861 21.0748 243.721 20.7615 243.588 20.5615C243.468 20.3481 243.314 20.2081 243.128 20.1415C242.941 20.0615 242.674 20.0215 242.328 20.0215H241.848V26.7415C241.848 27.0348 241.874 27.2481 241.928 27.3815C241.994 27.5148 242.128 27.5948 242.328 27.6215L243.308 27.7615V29.0215H237.168ZM252.352 29.3015C251.245 29.3015 250.299 29.0881 249.512 28.6615C248.739 28.2348 248.152 27.6348 247.752 26.8615C247.352 26.0748 247.152 25.1615 247.152 24.1215C247.152 22.9348 247.385 21.9215 247.852 21.0815C248.319 20.2415 248.965 19.6015 249.792 19.1615C250.619 18.7081 251.565 18.4815 252.632 18.4815C253.512 18.4815 254.272 18.6348 254.912 18.9415C255.565 19.2348 256.065 19.6748 256.412 20.2615C256.772 20.8348 256.952 21.5281 256.952 22.3415C256.952 22.6348 256.932 22.9481 256.892 23.2815C256.865 23.6015 256.812 23.9148 256.732 24.2215H250.452C250.492 24.8215 250.619 25.3348 250.832 25.7615C251.059 26.1881 251.372 26.5081 251.772 26.7215C252.172 26.9348 252.639 27.0415 253.172 27.0415C253.772 27.0415 254.312 26.9481 254.792 26.7615C255.285 26.5615 255.759 26.2881 256.212 25.9415L257.092 26.9615C256.585 27.6548 255.925 28.2215 255.112 28.6615C254.299 29.0881 253.379 29.3015 252.352 29.3015ZM250.452 22.7615H253.852C253.879 22.6015 253.892 22.4415 253.892 22.2815C253.905 22.1215 253.912 21.9548 253.912 21.7815C253.912 21.1681 253.785 20.7081 253.532 20.4015C253.292 20.0815 252.932 19.9215 252.452 19.9215C252.039 19.9215 251.685 20.0348 251.392 20.2615C251.112 20.4881 250.892 20.8148 250.732 21.2415C250.585 21.6548 250.492 22.1615 250.452 22.7615ZM258.301 33.3415V32.0415L259.061 31.9215C259.261 31.8948 259.401 31.8148 259.481 31.6815C259.574 31.5615 259.621 31.3215 259.621 30.9615V21.6015C259.621 21.1215 259.574 20.8015 259.481 20.6415C259.388 20.4815 259.208 20.3815 258.941 20.3415L258.181 20.2415L258.301 18.8615L262.101 18.6215L262.401 18.7815L262.541 20.5015H262.601C262.854 20.0881 263.141 19.7348 263.461 19.4415C263.794 19.1348 264.174 18.9015 264.601 18.7415C265.028 18.5681 265.514 18.4815 266.061 18.4815C266.928 18.4815 267.661 18.6748 268.261 19.0615C268.874 19.4481 269.341 20.0148 269.661 20.7615C269.994 21.5081 270.161 22.4281 270.161 23.5215C270.161 24.6948 269.981 25.7148 269.621 26.5815C269.261 27.4481 268.714 28.1215 267.981 28.6015C267.248 29.0681 266.334 29.3015 265.241 29.3015C264.774 29.3015 264.328 29.2481 263.901 29.1415C263.474 29.0481 263.108 28.9081 262.801 28.7215V30.9615C262.801 31.2948 262.841 31.5281 262.921 31.6615C263.014 31.7948 263.201 31.8748 263.481 31.9015L264.701 32.0615V33.3415H258.301ZM264.701 27.5415C265.181 27.5415 265.574 27.4148 265.881 27.1615C266.188 26.8948 266.414 26.4815 266.561 25.9215C266.721 25.3615 266.801 24.6481 266.801 23.7815C266.801 23.0081 266.728 22.3748 266.581 21.8815C266.434 21.3748 266.214 21.0015 265.921 20.7615C265.641 20.5215 265.281 20.4015 264.841 20.4015C264.414 20.4015 264.048 20.5015 263.741 20.7015C263.434 20.9015 263.201 21.1815 263.041 21.5415C262.881 21.9015 262.801 22.3348 262.801 22.8415V26.9015C263.014 27.0748 263.294 27.2281 263.641 27.3615C264.001 27.4815 264.354 27.5415 264.701 27.5415ZM271.724 29.0215V27.7415L272.524 27.5815C272.724 27.5548 272.858 27.4815 272.924 27.3615C272.991 27.2281 273.024 26.9881 273.024 26.6415V21.0815C273.024 20.7481 272.984 20.5215 272.904 20.4015C272.838 20.2681 272.711 20.1881 272.524 20.1615L271.644 20.0015L271.804 18.7215H277.364V20.0015L276.704 20.1215C276.491 20.1615 276.351 20.2481 276.284 20.3815C276.231 20.5015 276.204 20.7215 276.204 21.0415V22.9815H279.764V20.9815C279.764 20.6881 279.731 20.4815 279.664 20.3615C279.611 20.2415 279.478 20.1615 279.264 20.1215L278.584 20.0015L278.664 18.7215H284.264V20.0215L283.524 20.1415C283.284 20.1815 283.124 20.2615 283.044 20.3815C282.978 20.5015 282.944 20.7148 282.944 21.0215V26.7615C282.944 27.0548 282.978 27.2615 283.044 27.3815C283.124 27.4881 283.278 27.5615 283.504 27.6015L284.304 27.7415V29.0215H278.624V27.7415L279.264 27.6215C279.478 27.5815 279.611 27.5015 279.664 27.3815C279.731 27.2615 279.764 27.0481 279.764 26.7415V24.5215H276.204V26.7415C276.204 27.0481 276.231 27.2615 276.284 27.3815C276.351 27.5015 276.491 27.5815 276.704 27.6215L277.404 27.7615V29.0215H271.724ZM287.585 29.2815C287.052 29.2815 286.612 29.2081 286.265 29.0615C285.919 28.9148 285.592 28.7148 285.285 28.4615L285.645 27.4815C285.739 27.5348 285.832 27.5748 285.925 27.6015C286.019 27.6148 286.112 27.6215 286.205 27.6215C286.392 27.6215 286.545 27.5881 286.665 27.5215C286.785 27.4415 286.905 27.2948 287.025 27.0815C287.159 26.8548 287.319 26.5415 287.505 26.1415C287.665 25.8215 287.852 25.5481 288.065 25.3215C288.279 25.0815 288.532 24.8815 288.825 24.7215C289.132 24.5615 289.485 24.4348 289.885 24.3415L289.925 24.3015C289.285 24.2481 288.725 24.1148 288.245 23.9015C287.765 23.6881 287.392 23.3948 287.125 23.0215C286.872 22.6348 286.745 22.1681 286.745 21.6215C286.745 21.0348 286.912 20.5281 287.245 20.1015C287.579 19.6615 288.072 19.3215 288.725 19.0815C289.392 18.8415 290.225 18.7215 291.225 18.7215H297.025V20.0215L296.285 20.1415C296.045 20.1815 295.892 20.2615 295.825 20.3815C295.759 20.5015 295.725 20.7148 295.725 21.0215V26.7615C295.725 27.0415 295.759 27.2415 295.825 27.3615C295.892 27.4815 296.039 27.5615 296.265 27.6015L297.065 27.7415V29.0215H291.385V27.7415L292.025 27.6215C292.239 27.5815 292.379 27.5015 292.445 27.3815C292.512 27.2615 292.545 27.0481 292.545 26.7415V24.8215C292.465 24.8215 292.365 24.8215 292.245 24.8215C292.139 24.8215 292.025 24.8281 291.905 24.8415C291.799 24.8415 291.712 24.8481 291.645 24.8615C291.432 24.9015 291.245 25.0015 291.085 25.1615C290.925 25.3215 290.772 25.5615 290.625 25.8815C290.479 26.1881 290.325 26.5881 290.165 27.0815C289.992 27.5348 289.785 27.9281 289.545 28.2615C289.305 28.5948 289.019 28.8481 288.685 29.0215C288.365 29.1948 287.999 29.2815 287.585 29.2815ZM291.845 23.6215H292.545V19.8815C292.412 19.8548 292.279 19.8415 292.145 19.8415C292.012 19.8281 291.839 19.8215 291.625 19.8215C291.292 19.8215 290.999 19.9015 290.745 20.0615C290.492 20.2081 290.299 20.4281 290.165 20.7215C290.032 21.0015 289.965 21.3281 289.965 21.7015C289.965 22.3948 290.119 22.8881 290.425 23.1815C290.732 23.4748 291.205 23.6215 291.845 23.6215Z" fill="black"/>
<path d="M0 5C0 2.23858 2.23858 0 5 0H40.2576C43.019 0 45.2576 2.23858 45.2576 5V40C45.2576 42.7614 43.019 45 40.2576 45H5C2.23858 45 0 42.7614 0 40V5Z" fill="black"/>
<path d="M18.106 26.1473C18.2921 26.3652 18.4536 26.5272 18.5906 26.6333C18.7324 26.7393 18.8741 26.7917 19.0157 26.7903C19.1573 26.7889 19.3207 26.7239 19.506 26.5951L19.8074 27.0829C19.4766 27.5793 19.0575 27.9276 18.5502 28.1279C18.3355 28.213 18.1037 28.2567 17.8547 28.2591C17.6106 28.2615 17.3491 28.1591 17.0703 27.9518C16.7915 27.7494 16.5296 27.4712 16.2846 27.1171C16.0397 26.763 15.8068 26.3844 15.5861 25.9813C15.3655 25.5781 15.1594 25.1431 14.9678 24.6762C14.6044 23.8057 14.3243 23.0565 14.1275 22.4285C13.8063 22.8662 13.5166 23.2157 13.2585 23.477L13.2636 25.623L13.3936 27.9582C12.9789 28.0891 12.503 28.1572 11.9659 28.1625C11.4337 28.1676 11.0894 28.1075 10.9328 27.982L11.0151 25.6228L11.0011 19.7488C10.9997 19.1336 10.8205 18.7398 10.4637 18.5675C10.4197 18.5435 10.3488 18.5173 10.2511 18.489C10.1582 18.4606 10.102 18.4416 10.0825 18.432C10.009 18.3351 9.97201 18.1767 9.97149 17.957C9.97095 17.7324 9.97791 17.5761 9.99234 17.488C10.2364 17.4368 10.6733 17.4082 11.3031 17.4021C11.933 17.396 12.58 17.4141 13.2441 17.4565L13.255 22.0195C13.3134 21.931 13.418 21.764 13.5687 21.5184C13.7195 21.2679 13.8411 21.0689 13.9335 20.9215C14.0308 20.7741 14.1646 20.5702 14.3349 20.3097C14.51 20.0443 14.6609 19.828 14.7874 19.6608C14.914 19.4887 15.0697 19.2845 15.2547 19.0483C15.4446 18.8121 15.6175 18.6176 15.7733 18.4647C15.9292 18.3118 16.1071 18.1514 16.3068 17.9834C16.5115 17.8105 16.704 17.6719 16.8845 17.5676C17.2941 17.3391 17.7186 17.2226 18.158 17.2184C18.5974 17.2141 18.9762 17.3423 19.2942 17.6029C19.6121 17.8586 19.7717 18.2159 19.7728 18.6749C19.7738 19.129 19.6185 19.4967 19.3067 19.7781C18.9948 20.0594 18.629 20.2021 18.2091 20.2062C18.1212 20.2071 18.0333 20.2006 17.9454 20.1868C17.9441 19.679 17.8359 19.3285 17.6206 19.1352C17.5227 19.0483 17.4079 19.0055 17.2761 19.0067C17.1442 19.008 16.9979 19.0607 16.837 19.1648C16.6761 19.264 16.525 19.3802 16.3837 19.5135C16.2424 19.6467 16.0696 19.8412 15.8651 20.0971C15.5389 20.4909 15.1884 20.946 14.8137 21.4623C14.9999 21.734 15.2326 22.0808 15.512 22.5029C15.7962 22.925 16.0363 23.2816 16.2323 23.5726C16.4283 23.8637 16.6512 24.1911 16.9011 24.5549C17.151 24.9138 17.3665 25.2145 17.5477 25.4569C17.7339 25.6992 17.92 25.9293 18.106 26.1473ZM33.4328 18.9598C33.7998 21.3635 34.0722 22.9576 34.2498 23.742C34.4274 24.5216 34.6025 25.2645 34.7751 25.9709C34.9477 26.6772 35.0858 27.2643 35.1895 27.732C34.8431 27.8477 34.4257 27.9079 33.9375 27.9126C33.4541 27.9173 33.1122 27.8645 32.9117 27.7541C32.5292 27.0352 32.0697 24.7691 31.5333 20.9558C31.4439 20.3219 31.3918 19.9587 31.3769 19.866C30.4787 22.0135 29.8729 23.931 29.5596 25.6186C29.4438 26.235 29.3863 26.6677 29.3869 26.9167C29.3875 27.1658 29.3878 27.3122 29.3879 27.3562C29.0857 27.574 28.688 27.6852 28.1949 27.69C27.6529 27.6953 27.3207 27.5911 27.1981 27.3774C27.1243 27.1682 26.9473 26.6303 26.6669 25.7639C25.9143 23.4274 25.2456 21.4563 24.6607 19.8506L24.6324 20.2757C24.5629 21.8438 24.4703 22.9507 24.3547 23.5964C24.239 24.242 24.1329 24.7728 24.0362 25.1888C23.9395 25.5999 23.8232 25.9673 23.6873 26.2909C23.5562 26.6095 23.4055 26.904 23.2353 27.1742C22.8462 27.803 22.3611 28.1202 21.7801 28.1258C21.2967 28.1305 20.9105 27.9585 20.6216 27.6097C20.4845 27.445 20.4158 27.2675 20.4153 27.077C20.8297 26.7947 21.2096 26.4101 21.5551 25.9234C21.9006 25.4366 22.1826 24.926 22.401 24.3917C22.6195 23.8573 22.8086 23.2866 22.9683 22.6796C23.3022 21.4166 23.468 20.3236 23.4658 19.4008C23.4651 19.0981 23.4427 18.903 23.3985 18.8155C23.3543 18.7231 23.3224 18.6551 23.3028 18.6113C23.2832 18.5627 23.244 18.5191 23.1853 18.4806C23.1266 18.4421 23.0875 18.4181 23.068 18.4085C23.0533 18.3989 23.0093 18.3823 22.936 18.3585C22.8627 18.33 22.8211 18.3133 22.8114 18.3085C22.733 18.2116 22.6936 18.0508 22.693 17.8262C22.6925 17.5967 22.7019 17.4428 22.7212 17.3645C22.9652 17.3133 23.2923 17.2857 23.7025 17.2818C24.1175 17.2777 24.6595 17.2969 25.3285 17.3392C25.563 17.3858 26.3164 19.0264 27.5887 22.2612C28.0701 23.4871 28.3722 24.2166 28.4948 24.4498C28.7563 23.5488 29.5953 21.1651 31.0119 17.2987C31.5001 17.2598 31.8198 17.2396 31.9712 17.2381C32.1274 17.2366 32.2984 17.2667 32.4841 17.3284C32.6747 17.3851 32.8631 17.5615 33.0493 17.8576C33.2356 18.1536 33.3634 18.521 33.4328 18.9598Z" fill="white"/>
</svg>
